# xmcd CD database file
#
# Track frame offsets:
#	182
#	11415
#	29112
#	45970
#	61695
#	78875
#	94007
#	108767
#	122490
#	139367
#
# Disc length: 2124 seconds
#
# Revision: 3
# Processed by: cddbd v1.5.1PL0 Copyright (c) Steve Scherf et al.
# Submitted via: CDex 1.51
#
DISCID=71084a0a
DTITLE=The Marshall Tucker Band - Walk Outside The Lines
DYEAR=1993
DGENRE=Rock
TTITLE0=Walk Outside The Lines
TTITLE1=Daddy's Eyes
TTITLE2=If that Isn't Love
TTITLE3=Down We Go
TTITLE4=She's Waiting
TTITLE5=Miss You
TTITLE6=Daddy Never Told Me
TTITLE7=I'll Be Alright Without You
TTITLE8=The First One To Say Goodbye
TTITLE9=Lost In Time
EXTD=more info YEAR: 1993
EXTT0=
EXTT1=
EXTT2=
EXTT3=
EXTT4=
EXTT5=
EXTT6=
EXTT7=
EXTT8=
EXTT9=
PLAYORDER=
